<?xml version="1.0" standalone="no"?><!DOCTYPE svg PUBLIC "-//W3C//DTD SVG 1.1//EN" "http://www.w3.org/Graphics/SVG/1.1/DTD/svg11.dtd"><svg t="1737517843075" class="icon" viewBox="0 0 1024 1024" version="1.1" xmlns="http://www.w3.org/2000/svg" p-id="11265" xmlns:xlink="http://www.w3.org/1999/xlink" width="200" height="200"><path d="M883.612 145.595s82.887-32.335 75.979 46.192c-2.302 32.335-23.023 145.505-39.14 267.915L865.193 822.31s-4.604 53.12-46.048 62.36c-41.444 9.237-103.607-32.335-115.121-41.574-9.21-6.928-172.679-110.861-230.24-161.672-16.118-13.858-34.537-41.574 2.302-73.908l241.753-230.96c27.63-27.715 55.258-92.384-59.863-13.857L335.64 582.112s-36.839 23.095-105.91 2.309L80.073 538.229s-55.258-34.644 39.14-69.29c230.242-108.552 513.438-219.413 764.4-323.344z" p-id="11266"></path></svg>